# xmcd CD database file
# Copyright (C) 1993-1998 Ti Kan
#
# Track frame offsets:
# 150
# 10862
# 21187
# 29800
# 40100
# 53925
# 70512
# 78650
# 93112
# 106987
# 120750
# 131075
# 139925
# 171700
# 184675
# 202725
#
# Disc length: 2871 seconds
# Submitted via: CD-Runner 7.0
#
# Revision: 1
# Processed by: cddbd v1.4b41PL1 Copyright (c) Steve Scherf et al.
#
DISCID=d40b3510
DTITLE=Boxcar Willie - Boxcar Willie On Stage
DYEAR=1900
DGENRE=
TTITLE0=Wabash Cannonball
TTITLE1=T For Texas
TTITLE2=Anytime - Just A Little More Lovin'
TTITLE3=Jambalaya
TTITLE4=He'll Have To Go
TTITLE5=San Antonio Rose
TTITLE6=Tennessee Saturday Night
TTITLE7=The Tennessee Waltz
TTITLE8=If You're got The Money Honey
TTITLE9=Waltz Across Texas
TTITLE10=Black Rag Mountain
TTITLE11=Stell Guitar Rag
TTITLE12=Medley: Hank Willams
TTITLE13=Medley: Mountain Dew - Coming 'Round The Mountain - Y'all Co
TTITLE14=Peace In The Valley
TTITLE15=Hobo Heaven
EXTD=
EXTT0=
EXTT1=
EXTT2=
EXTT3=
EXTT4=
EXTT5=
EXTT6=
EXTT7=
EXTT8=
EXTT9=
EXTT10=
EXTT11=
EXTT12=
EXTT13=
EXTT14=
EXTT15=
PLAYORDER=
